<?xml version="1.0" standalone="no"?>
<svg xmlns:xlink="http://www.w3.org/1999/xlink" id="wave" style="transform:rotate(0deg); transition: 0.3s" viewBox="0 0 1440 300" version="1.1" xmlns="http://www.w3.org/2000/svg"><defs><linearGradient id="sw-gradient-0" x1="0" x2="0" y1="1" y2="0"><stop stop-color="rgba(58, 191, 248, 1)" offset="0%"/><stop stop-color="rgba(58, 191, 248, 1)" offset="100%"/></linearGradient></defs><path style="transform:translate(0, 0px); opacity:1" fill="url(#sw-gradient-0)" d="M0,180L48,185C96,190,192,200,288,175C384,150,480,90,576,90C672,90,768,150,864,145C960,140,1056,70,1152,50C1248,30,1344,60,1440,100C1536,140,1632,190,1728,180C1824,170,1920,100,2016,65C2112,30,2208,30,2304,65C2400,100,2496,170,2592,180C2688,190,2784,140,2880,130C2976,120,3072,150,3168,145C3264,140,3360,100,3456,80C3552,60,3648,60,3744,80C3840,100,3936,140,4032,175C4128,210,4224,240,4320,215C4416,190,4512,110,4608,100C4704,90,4800,150,4896,155C4992,160,5088,110,5184,110C5280,110,5376,160,5472,175C5568,190,5664,170,5760,180C5856,190,5952,230,6048,235C6144,240,6240,210,6336,190C6432,170,6528,160,6624,140C6720,120,6816,90,6864,75L6912,60L6912,300L6864,300C6816,300,6720,300,6624,300C6528,300,6432,300,6336,300C6240,300,6144,300,6048,300C5952,300,5856,300,5760,300C5664,300,5568,300,5472,300C5376,300,5280,300,5184,300C5088,300,4992,300,4896,300C4800,300,4704,300,4608,300C4512,300,4416,300,4320,300C4224,300,4128,300,4032,300C3936,300,3840,300,3744,300C3648,300,3552,300,3456,300C3360,300,3264,300,3168,300C3072,300,2976,300,2880,300C2784,300,2688,300,2592,300C2496,300,2400,300,2304,300C2208,300,2112,300,2016,300C1920,300,1824,300,1728,300C1632,300,1536,300,1440,300C1344,300,1248,300,1152,300C1056,300,960,300,864,300C768,300,672,300,576,300C480,300,384,300,288,300C192,300,96,300,48,300L0,300Z"/></svg>