<?xml version="1.0" standalone="no"?><svg xmlns="http://www.w3.org/2000/svg" viewBox="0 0 1440 320"><path fill="#3abff8" fill-opacity="1" d="M0,256L0,96L36.9,96L36.9,160L73.8,160L73.8,64L110.8,64L110.8,224L147.7,224L147.7,288L184.6,288L184.6,160L221.5,160L221.5,224L258.5,224L258.5,224L295.4,224L295.4,96L332.3,96L332.3,224L369.2,224L369.2,288L406.2,288L406.2,32L443.1,32L443.1,192L480,192L480,192L516.9,192L516.9,288L553.8,288L553.8,96L590.8,96L590.8,288L627.7,288L627.7,192L664.6,192L664.6,224L701.5,224L701.5,288L738.5,288L738.5,96L775.4,96L775.4,64L812.3,64L812.3,256L849.2,256L849.2,160L886.2,160L886.2,64L923.1,64L923.1,32L960,32L960,0L996.9,0L996.9,64L1033.8,64L1033.8,256L1070.8,256L1070.8,160L1107.7,160L1107.7,288L1144.6,288L1144.6,128L1181.5,128L1181.5,128L1218.5,128L1218.5,224L1255.4,224L1255.4,256L1292.3,256L1292.3,320L1329.2,320L1329.2,64L1366.2,64L1366.2,0L1403.1,0L1403.1,64L1440,64L1440,0L1403.1,0L1403.1,0L1366.2,0L1366.2,0L1329.2,0L1329.2,0L1292.3,0L1292.3,0L1255.4,0L1255.4,0L1218.5,0L1218.5,0L1181.5,0L1181.5,0L1144.6,0L1144.6,0L1107.7,0L1107.7,0L1070.8,0L1070.8,0L1033.8,0L1033.8,0L996.9,0L996.9,0L960,0L960,0L923.1,0L923.1,0L886.2,0L886.2,0L849.2,0L849.2,0L812.3,0L812.3,0L775.4,0L775.4,0L738.5,0L738.5,0L701.5,0L701.5,0L664.6,0L664.6,0L627.7,0L627.7,0L590.8,0L590.8,0L553.8,0L553.8,0L516.9,0L516.9,0L480,0L480,0L443.1,0L443.1,0L406.2,0L406.2,0L369.2,0L369.2,0L332.3,0L332.3,0L295.4,0L295.4,0L258.5,0L258.5,0L221.5,0L221.5,0L184.6,0L184.6,0L147.7,0L147.7,0L110.8,0L110.8,0L73.8,0L73.8,0L36.9,0L36.9,0L0,0L0,0Z"></path></svg>